<?xml version="1.0" standalone="no"?>
<!DOCTYPE svg PUBLIC "-//W3C//DTD SVG 20010904//EN"
 "http://www.w3.org/TR/2001/REC-SVG-20010904/DTD/svg10.dtd">
<svg version="1.0" xmlns="http://www.w3.org/2000/svg"
 width="750.000000pt" height="750.000000pt" viewBox="0 0 750.000000 750.000000"
 preserveAspectRatio="xMidYMid meet">
<metadata>
Created by potrace 1.11, written by Peter Selinger 2001-2013
</metadata>
<g transform="translate(0.000000,750.000000) scale(0.100000,-0.100000)"
fill="#000000" stroke="none">
<path d="M2740 7489 c-58 -5 -157 -16 -220 -25 -64 -9 -197 -17 -300 -18 -178
-1 -188 -2 -255 -30 -127 -51 -164 -58 -223 -46 -30 7 -84 26 -120 43 -59 28
-77 32 -152 32 -100 0 -139 -15 -203 -81 -48 -49 -94 -135 -128 -243 -22 -68
-29 -78 -92 -132 -82 -71 -110 -103 -145 -168 -18 -33 -55 -71 -111 -116 -46
-37 -97 -87 -114 -111 -17 -24 -74 -77 -126 -118 -176 -136 -265 -223 -316
-310 -61 -107 -88 -275 -66 -423 11 -75 10 -86 -9 -144 -12 -35 -30 -75 -41
-90 -27 -38 -64 -139 -94 -258 -22 -89 -25 -120 -25 -283 l0 -183 30 -52 c39
-68 113 -140 192 -186 l64 -38 18 -75 c25 -105 74 -197 149 -279 l64 -70 114
-18 c188 -29 168 -37 284 115 115 152 303 347 357 371 72 33 168 17 218 -38
21 -23 25 -36 25 -93 0 -60 -6 -80 -56 -192 -107 -235 -104 -226 -85 -256 24
-35 35 -24 98 104 90 186 204 274 328 256 35 -5 54 -16 86 -49 36 -37 47 -42
83 -42 55 0 92 -27 111 -81 14 -41 16 -42 58 -42 47 0 116 -30 134 -59 10 -17
13 -17 39 -2 23 13 27 20 21 41 -30 108 33 202 136 202 112 0 182 -101 139
-203 l-14 -35 39 19 c52 26 150 27 201 3 22 -11 50 -36 64 -57 l26 -39 33 30
c19 16 49 37 67 47 41 22 139 23 192 1 27 -10 57 -14 92 -11 34 4 61 0 80 -9
26 -13 33 -13 64 4 43 23 95 23 138 0 33 -18 35 -18 70 1 46 23 130 19 169 -9
33 -24 72 -98 72 -136 0 -22 8 -32 43 -49 45 -24 80 -30 112 -19 11 4 39 10
63 14 l42 6 1 -32 c0 -18 10 14 20 71 46 245 177 457 336 543 183 100 393 59
463 -89 30 -63 39 -208 17 -271 l-15 -43 37 6 c45 8 89 -8 116 -40 l21 -25 34
25 c50 37 121 35 161 -4 29 -29 30 -30 59 -13 28 16 29 19 24 68 -15 125 97
209 208 155 68 -33 97 -104 75 -184 -7 -27 -7 -27 15 -16 66 35 143 29 204
-17 29 -22 35 -24 56 -12 13 7 24 13 25 14 1 0 -2 17 -8 37 -14 51 3 105 46
147 33 32 41 35 95 35 44 0 66 -6 87 -21 43 -31 65 -81 60 -136 -4 -43 -2 -48
17 -48 12 0 33 -7 49 -15 24 -12 32 -12 62 1 49 20 119 18 165 -6 33 -17 50
-34 76 -78 1 -1 16 11 33 27 33 31 90 56 154 66 46 7 56 22 112 163 58 143 95
272 102 352 6 78 -19 156 -70 215 l-33 38 -48 -66 c-119 -162 -338 -252 -523
-213 -75 15 -136 42 -191 84 -36 28 -101 118 -120 167 -19 50 -42 151 -42 183
0 30 -2 28 -87 -57 -144 -145 -328 -269 -468 -317 -198 -67 -373 -33 -511 101
l-62 60 -59 -48 c-84 -70 -134 -97 -218 -118 -70 -18 -78 -18 -145 -3 -49 11
-85 27 -117 51 l-45 35 -57 -30 c-31 -16 -80 -35 -109 -42 -144 -33 -302 45
-369 183 -17 37 -23 43 -18 22 l6 -30 -21 34 c-12 19 -18 40 -15 50 6 14 8 13
16 -4 8 -17 9 -17 5 5 -3 14 -8 46 -11 73 l-7 47 -64 -84 c-35 -47 -91 -112
-124 -144 -33 -33 -57 -62 -53 -64 5 -3 3 -3 -4 -2 -7 2 -32 -8 -55 -21 -24
-13 -73 -31 -108 -39 -58 -14 -72 -14 -129 0 -39 9 -82 27 -110 48 l-46 34
-30 -24 c-45 -36 -127 -57 -201 -51 -82 6 -155 41 -230 110 l-61 56 -54 -56
c-104 -106 -227 -174 -319 -175 -167 -1 -259 103 -279 313 l-6 68 -74 -100
c-118 -159 -216 -214 -328 -185 -28 8 -66 24 -84 36 -45 33 -87 104 -100 172
l-12 59 -49 -82 c-105 -175 -194 -277 -291 -334 -103 -60 -275 -81 -407 -49
-128 30 -228 128 -246 243 -10 62 21 171 62 219 48 56 101 78 234 97 63 9 126
21 140 27 l25 11 -28 11 c-56 24 -115 85 -149 153 -30 62 -33 75 -33 163 0 82
4 103 27 153 97 207 371 410 876 647 114 53 256 127 316 164 60 36 129 71 153
78 46 11 110 7 177 -13 55 -15 141 -103 156 -158 l11 -43 59 57 c83 79 134
100 240 100 108 0 149 -15 209 -75 58 -58 77 -118 67 -211 -6 -66 -29 -115
-91 -204 -40 -56 -125 -201 -125 -212 0 -2 27 19 59 49 193 174 440 225 609
127 30 -17 36 -18 92 -3 52 13 65 13 112 1 29 -8 60 -18 69 -21 13 -6 19 5 33
52 30 109 119 205 212 231 85 24 193 4 275 -51 58 -39 85 -79 100 -146 9 -44
14 -52 27 -46 10 3 41 12 69 19 88 22 189 -15 253 -93 l30 -36 39 22 c21 12
46 22 56 22 12 0 15 5 10 18 -4 9 -14 44 -23 76 -20 79 -5 160 44 233 44 64
97 100 180 120 58 15 70 15 128 0 118 -29 190 -99 222 -216 15 -53 16 -71 6
-118 -6 -31 -21 -73 -32 -95 -22 -42 -21 -44 18 -24 55 28 163 49 234 44 37
-3 68 -2 68 1 0 4 -16 53 -35 110 -67 200 -212 422 -329 506 -61 43 -76 73
-76 151 0 148 -126 262 -298 272 -47 2 -101 -2 -139 -11 -54 -12 -75 -12 -160
0 -178 26 -302 60 -403 110 -78 39 -106 48 -160 51 -119 7 -216 -56 -256 -167
-10 -25 -20 -49 -23 -53 -3 -4 -35 1 -71 12 -36 10 -81 21 -100 25 -28 4 -42
16 -68 55 -39 57 -104 101 -182 125 -95 29 -140 46 -140 55 0 5 13 18 28 29
33 23 78 101 87 153 9 49 -16 133 -54 178 -16 20 -53 49 -82 64 -62 34 -131
40 -299 25z m1600 -2895 c0 -8 -19 -13 -24 -6 -3 5 1 9 9 9 8 0 15 -2 15 -3z
m-15 -34 c3 -6 11 -10 16 -10 6 0 7 5 3 12 -5 7 -3 8 5 3 9 -5 10 -10 2 -18
-7 -7 -16 -6 -28 5 -10 8 -23 14 -29 11 -6 -2 -11 3 -11 11 0 11 5 13 18 5 10
-5 21 -14 24 -19z m-325 -215 c14 -2 39 -8 55 -14 17 -6 41 -13 55 -16 42 -8
53 -21 56 -64 3 -46 -14 -63 -41 -41 -9 7 -41 13 -73 14 -40 1 -61 6 -69 17
-16 22 -61 30 -65 13 -2 -9 -8 -11 -18 -4 -13 8 -12 11 5 24 14 10 19 24 17
51 -3 36 -2 37 25 30 15 -4 39 -9 53 -10z m-130 -86 c0 -5 -3 -9 -7 -10 -5 0
-18 -2 -30 -5 -27 -5 -30 11 -6 24 18 11 43 5 43 -9z"/>
<path d="M1897 6295 c-15 -8 -77 -44 -136 -79 -59 -36 -159 -89 -222 -117
-579 -261 -872 -487 -920 -709 -23 -108 57 -259 146 -276 83 -15 163 19 205
88 10 17 23 58 29 91 16 92 52 157 108 197 27 19 83 60 127 93 43 32 80 56 82
54 6 -5 -226 -346 -303 -446 -80 -102 -196 -225 -238 -251 -16 -10 -68 -24
-115 -30 -199 -28 -234 -42 -265 -106 -43 -90 -29 -171 40 -232 134 -118 380
-101 536 37 82 72 206 271 386 616 45 88 83 157 83 153 0 -4 -11 -52 -25 -106
-86 -341 -62 -522 76 -563 118 -36 242 107 504 583 33 59 61 106 62 104 2 -2
-8 -45 -22 -97 -58 -215 -81 -445 -55 -540 36 -129 155 -179 275 -116 85 44
204 155 262 244 20 30 25 29 48 -9 36 -62 134 -155 187 -178 100 -43 199 -20
276 64 l39 43 34 -46 c99 -133 254 -124 404 23 77 76 138 163 272 389 75 127
110 177 123 177 11 0 21 -3 23 -7 3 -5 -11 -62 -30 -128 -44 -152 -55 -307
-29 -399 23 -76 83 -138 157 -160 29 -9 63 -16 76 -16 43 0 135 39 190 80 l54
42 41 -47 c50 -57 107 -87 167 -88 100 -2 181 42 302 164 l77 76 23 -41 c31
-55 114 -143 165 -172 23 -14 73 -31 110 -39 148 -31 293 22 515 186 254 189
377 413 259 474 -38 20 -66 19 -116 -4 l-41 -19 4 42 c6 53 -21 169 -52 222
-86 147 -325 231 -506 178 -158 -46 -295 -210 -370 -444 -26 -82 -32 -90 -136
-201 -59 -64 -110 -115 -112 -113 -1 1 40 81 94 177 125 227 158 305 159 379
1 54 -2 60 -39 98 -105 108 -198 122 -286 43 -30 -28 -65 -87 -153 -267 -63
-127 -141 -271 -174 -321 -63 -97 -133 -175 -156 -175 -31 0 12 76 193 349
132 199 163 253 181 320 17 64 6 102 -46 160 -95 105 -191 89 -320 -54 -38
-41 -81 -79 -96 -84 -15 -6 -28 -9 -28 -7 0 2 15 36 34 77 61 133 70 226 26
282 -51 64 -185 96 -263 63 -74 -32 -127 -119 -149 -243 -14 -82 -3 -133 37
-181 14 -17 25 -38 25 -48 0 -11 -21 -48 -46 -84 -25 -36 -91 -132 -145 -215
-55 -82 -102 -151 -105 -154 -18 -18 107 242 176 367 44 81 49 120 24 180 -47
113 -195 166 -279 101 l-25 -20 -32 24 c-116 87 -248 92 -400 17 -170 -84
-293 -234 -358 -435 -30 -91 -58 -146 -113 -221 -45 -61 -184 -204 -198 -204
-4 0 1 28 11 63 95 321 318 800 474 1019 70 98 69 196 -3 261 -70 63 -190 68
-273 11 -68 -47 -287 -316 -487 -598 -50 -70 -91 -125 -91 -120 0 11 132 261
178 337 23 37 62 91 86 121 98 121 81 278 -36 335 -52 25 -130 28 -171 6z
m1248 -892 c-38 -131 -154 -335 -245 -429 -54 -56 -61 -45 -30 46 29 86 82
189 145 285 53 78 133 170 142 161 3 -2 -3 -31 -12 -63z m2361 -10 c-20 -36
-96 -121 -96 -108 0 23 98 151 108 141 2 -2 -4 -17 -12 -33z m84 -453 c-48
-42 -168 -99 -221 -106 -40 -5 -48 -3 -77 24 -40 38 -41 53 -3 46 44 -9 194
14 264 40 34 13 64 24 67 25 3 0 -11 -13 -30 -29z"/>
<path d="M4845 6115 c-78 -28 -135 -115 -135 -205 1 -103 103 -200 210 -200
110 0 210 100 210 210 0 53 -23 106 -64 146 -61 61 -138 78 -221 49z"/>
<path d="M6253 6081 c-43 -27 -79 -93 -94 -171 -22 -117 -28 -134 -85 -230
-80 -134 -87 -154 -74 -195 16 -47 72 -95 113 -95 33 0 97 32 97 49 0 5 40 41
90 80 203 160 296 348 234 472 -46 91 -198 140 -281 90z"/>
<path d="M6739 5696 c-102 -27 -218 -125 -264 -221 -13 -29 -30 -85 -37 -123
l-12 -70 -55 -15 c-141 -39 -224 -143 -238 -298 -15 -157 85 -329 217 -375 76
-26 186 -25 275 3 119 38 240 154 287 276 29 73 29 183 -1 262 -12 33 -24 67
-27 75 -4 11 5 19 28 28 89 32 148 118 148 217 0 108 -76 208 -181 239 -62 19
-78 19 -140 2z m-99 -805 c0 -37 -47 -81 -87 -81 -67 0 -68 58 -1 124 l40 41
24 -28 c13 -16 24 -41 24 -56z"/>
<path d="M5007 5638 c-15 -5 -26 -15 -24 -21 7 -21 24 -18 41 8 9 14 15 25 14
24 -2 0 -16 -5 -31 -11z"/>
<path d="M1274 4462 c-72 -53 -212 -214 -400 -459 -24 -32 -28 -33 -92 -33
-37 1 -96 7 -132 15 -96 21 -127 19 -155 -10 -27 -26 -33 -72 -14 -107 15 -29
68 -47 154 -55 41 -3 75 -10 75 -15 0 -4 -28 -37 -63 -72 -87 -86 -154 -118
-255 -120 -90 -3 -99 -7 -118 -52 -17 -40 -6 -76 30 -100 38 -24 155 -16 221
15 74 36 218 186 282 294 29 49 53 93 55 98 4 12 212 69 252 69 26 0 28 -2 21
-27 -24 -96 -36 -177 -37 -259 -2 -78 1 -97 17 -114 10 -11 24 -20 32 -20 29
0 80 35 150 103 74 71 91 79 75 36 -34 -89 -20 -218 29 -274 77 -87 169 -36
254 140 24 50 47 102 51 118 4 18 13 27 26 27 50 0 131 74 184 168 27 48 32
52 67 52 34 0 37 -2 27 -19 -5 -11 -19 -57 -30 -103 -39 -163 -20 -238 61
-238 51 0 116 33 137 71 9 16 19 29 22 29 3 0 14 -17 25 -37 39 -72 86 -68
197 18 35 27 68 49 74 49 6 0 17 -13 24 -30 15 -37 91 -107 124 -116 45 -11
98 16 168 86 l67 67 11 -32 c20 -62 103 -115 155 -99 11 4 37 22 58 40 20 19
42 34 47 34 6 0 19 -20 30 -45 30 -71 84 -70 154 4 37 39 43 39 43 0 0 -35 26
-62 57 -57 22 4 28 14 50 88 32 111 177 331 223 338 38 6 34 -26 -14 -100 -88
-136 -128 -271 -93 -313 14 -17 57 -20 95 -5 64 24 198 183 212 250 5 29 4 31
-18 28 -16 -2 -39 -26 -73 -78 -45 -66 -102 -120 -127 -120 -18 0 -8 20 46 89
31 39 62 86 70 106 18 41 20 128 3 158 -39 74 -130 59 -194 -32 -16 -22 -32
-41 -37 -41 -4 0 -4 18 -1 40 8 49 -14 80 -56 80 -39 0 -60 -30 -70 -101 -11
-74 -62 -181 -127 -264 -48 -61 -79 -71 -89 -30 -9 36 16 99 85 216 61 104 71
135 49 157 -17 17 -69 15 -96 -4 -22 -15 -25 -15 -45 4 -27 26 -105 47 -138
39 -66 -17 -128 -89 -228 -266 -65 -115 -154 -178 -219 -155 -24 8 -27 15 -30
61 -4 73 46 200 102 259 45 46 66 54 86 29 19 -23 8 -46 -40 -80 -60 -42 -77
-77 -56 -111 37 -55 118 -13 144 74 34 112 -14 212 -100 212 -46 0 -103 -23
-133 -54 -18 -17 -65 -87 -105 -156 -74 -125 -147 -212 -188 -222 -35 -10 -28
18 39 155 68 138 83 202 54 231 -10 10 -29 16 -44 14 -22 -3 -33 -18 -76 -104
-89 -179 -165 -274 -220 -274 -21 0 -25 5 -25 31 0 42 49 141 116 234 64 90
67 118 18 147 -39 23 -55 17 -89 -31 -28 -41 -61 -61 -100 -61 -32 0 -33 26
-4 83 26 50 28 112 6 135 -15 15 -19 15 -52 -1 -51 -24 -71 -75 -56 -140 19
-84 15 -111 -28 -164 -44 -57 -97 -103 -116 -103 -9 0 -16 19 -20 54 -4 30
-16 68 -26 86 -38 63 -69 13 -69 -113 0 -79 -4 -98 -42 -195 -45 -114 -92
-180 -121 -169 -45 17 -1 177 114 415 100 210 160 302 194 302 25 0 17 -35
-20 -83 -49 -65 -44 -117 11 -117 51 0 99 112 92 217 -4 57 -8 69 -32 89 -33
29 -74 31 -125 5 -58 -30 -109 -95 -162 -206 -27 -56 -58 -110 -69 -120 -11
-10 -50 -60 -86 -111 -77 -109 -185 -224 -209 -224 -16 0 -17 8 -12 63 4 57
61 257 73 257 3 0 18 -7 35 -15 16 -9 34 -13 39 -10 20 12 10 51 -20 75 l-30
25 64 145 c35 80 75 171 90 203 31 68 34 127 8 150 -31 28 -102 22 -148 -11z
m-117 -329 l-22 -113 -62 0 -63 0 83 114 c45 63 83 113 83 112 1 0 -8 -52 -19
-113z m2017 -285 c-2 -98 -97 -263 -148 -256 -19 3 -21 9 -20 60 2 98 97 263
148 256 19 -3 21 -9 20 -60z"/>
<path d="M4633 4406 c-212 -69 -376 -338 -377 -621 -1 -133 19 -191 88 -260
110 -110 248 -97 391 37 35 32 68 58 74 58 6 0 11 -18 11 -43 0 -54 29 -108
64 -120 36 -12 104 29 147 88 18 25 35 45 39 45 4 0 12 -18 19 -39 6 -22 23
-49 37 -60 30 -24 59 -16 111 29 43 38 57 38 73 -1 25 -59 96 -58 178 1 l41
30 17 -30 c27 -45 71 -64 137 -58 69 6 121 42 155 108 27 55 28 94 2 145 -26
51 -26 52 10 60 38 8 70 49 70 87 0 35 -57 98 -88 98 -52 0 -119 -46 -148
-102 -8 -15 -14 -45 -14 -68 0 -37 -2 -40 -27 -40 -59 0 -123 -66 -123 -127 0
-31 -119 -117 -137 -99 -4 3 31 82 76 175 90 183 95 210 45 233 -37 17 -71
-13 -127 -118 -71 -131 -124 -209 -169 -250 -22 -19 -42 -33 -45 -31 -2 3 32
81 76 174 45 93 81 177 81 186 0 34 -20 57 -49 57 -40 0 -90 -58 -181 -209
-85 -141 -139 -205 -164 -195 -9 3 -16 15 -16 25 0 29 43 109 100 184 27 36
57 79 65 95 30 58 11 120 -36 120 -32 0 -114 -85 -184 -189 -99 -149 -209
-245 -302 -265 -53 -12 -119 24 -143 76 -88 193 134 665 342 727 62 19 108
-13 108 -75 0 -60 -80 -158 -155 -189 -88 -36 -110 -94 -58 -155 24 -29 31
-32 66 -27 49 7 99 47 147 116 104 150 96 332 -17 397 -53 32 -147 41 -210 20z
m1222 -526 c0 -10 -12 -16 -40 -18 -22 -2 -46 -10 -52 -19 -12 -15 -13 -15
-13 2 0 33 31 56 69 53 24 -2 36 -8 36 -18z m-91 -273 c12 -33 -13 -74 -51
-83 -64 -16 -84 48 -32 102 30 31 35 33 53 20 12 -7 25 -25 30 -39z"/>
<path d="M4745 4228 c-26 -14 -104 -88 -116 -110 -7 -14 -3 -13 34 4 51 24 84
53 103 91 16 29 11 33 -21 15z"/>
<path d="M2440 4217 c-56 -28 -48 -110 13 -131 22 -8 33 -6 55 11 70 52 10
159 -68 120z"/>
<path d="M5530 4130 c-43 -43 -11 -120 49 -120 34 0 71 39 71 74 0 56 -79 87
-120 46z"/>
<path d="M6101 4114 c-12 -15 -21 -34 -21 -44 0 -10 9 -29 21 -44 41 -53 119
-21 119 48 0 64 -79 90 -119 40z"/>
<path d="M2518 4013 c-10 -2 -18 -13 -18 -24 0 -23 15 -17 30 12 6 10 9 18 8
18 -2 -1 -11 -3 -20 -6z"/>
<path d="M4527 3936 c-10 -25 -9 -38 3 -31 6 3 10 1 10 -6 0 -7 2 -10 5 -8 2
3 1 18 -3 34 -7 24 -9 26 -15 11z"/>
<path d="M5628 3943 c-10 -2 -18 -13 -18 -24 0 -25 4 -24 24 6 9 14 15 24 14
24 -2 -1 -11 -3 -20 -6z"/>
<path d="M6274 3930 c-27 -11 -59 -79 -73 -156 -18 -96 -95 -190 -184 -223
-43 -17 -44 7 -2 101 83 188 99 257 60 272 -45 17 -92 -45 -151 -194 -29 -73
-38 -110 -38 -158 -1 -58 1 -66 28 -89 41 -35 101 -28 159 18 23 18 48 37 56
43 12 9 13 6 9 -18 -8 -40 7 -76 31 -76 39 0 78 48 111 133 40 105 70 156 115
196 35 30 95 44 95 21 0 -5 -20 -41 -45 -80 -62 -95 -95 -168 -95 -210 0 -109
109 -107 237 5 57 50 60 49 91 -15 37 -75 159 -110 263 -75 103 35 220 169
223 253 1 30 -3 38 -19 40 -15 2 -31 -13 -63 -62 -23 -35 -59 -78 -80 -94
-106 -84 -212 -101 -228 -37 -9 37 17 61 75 69 109 14 223 129 206 207 -17 78
-124 139 -217 124 -57 -10 -120 -71 -159 -154 -17 -36 -38 -81 -46 -98 -20
-40 -145 -163 -167 -163 -24 0 -20 12 28 81 64 95 97 166 103 224 7 64 -7 92
-54 111 -55 23 -85 10 -153 -64 -45 -48 -58 -59 -51 -38 18 45 13 83 -11 100
-25 18 -25 18 -54 6z m686 -110 c0 -37 -110 -140 -150 -140 -18 0 37 95 75
128 41 37 75 42 75 12z"/>
<path d="M4491 3834 c0 -11 3 -14 6 -6 3 7 2 16 -1 19 -3 4 -6 -2 -5 -13z"/>
<path d="M4590 3826 c0 -2 8 -10 18 -17 15 -13 16 -12 3 4 -13 16 -21 21 -21
13z"/>
<path d="M4750 3790 c-9 -6 -10 -10 -3 -10 6 0 15 5 18 10 8 12 4 12 -15 0z"/>
<path d="M2816 3484 c-37 -32 -115 -64 -158 -64 -30 0 -82 25 -121 59 l-36 32
-7 -37 c-11 -61 3 -194 29 -269 34 -100 58 -143 133 -241 l65 -85 -34 -39
c-19 -21 -38 -51 -42 -68 -8 -39 9 -99 39 -137 l24 -30 -53 -57 c-29 -31 -78
-95 -109 -141 -257 -386 -244 -857 34 -1244 34 -48 53 -84 47 -86 -16 -5 10
-37 30 -37 12 0 13 3 4 14 -7 8 -8 16 -4 18 5 1 23 36 41 75 30 64 32 77 23
106 -14 40 -74 100 -158 156 -101 67 -83 77 62 35 121 -35 222 -84 283 -139
64 -57 86 -111 80 -194 -4 -52 -2 -59 11 -51 47 25 91 101 91 158 0 65 -42
130 -160 249 -129 130 -163 190 -164 288 -1 100 56 176 181 239 29 14 63 26
76 26 24 0 24 -1 15 -47 -6 -27 -14 -52 -19 -58 -5 -5 -9 -18 -9 -30 0 -17 -2
-18 -11 -5 -8 11 -9 5 -4 -24 17 -104 119 -184 350 -276 92 -36 129 -58 203
-118 l53 -43 14 35 c22 51 19 79 -14 144 -25 50 -89 127 -208 252 -19 19 -48
63 -65 98 -81 164 0 310 237 427 115 57 306 119 348 113 l25 -3 -36 -75 c-32
-66 -37 -84 -36 -150 0 -53 6 -87 19 -114 49 -101 247 -253 565 -433 52 -30
118 -72 147 -94 107 -83 179 -199 185 -299 1 -23 5 -43 9 -46 4 -2 17 20 30
49 34 77 39 221 10 298 -31 82 -93 173 -177 259 -61 64 -70 76 -52 77 12 1 74
-24 138 -56 418 -207 646 -469 615 -705 -9 -68 -44 -154 -91 -221 -41 -60 -39
-83 4 -43 15 14 47 39 72 56 25 17 59 44 76 59 29 27 138 165 148 188 8 18 26
-19 26 -55 0 -20 -6 -60 -14 -90 -8 -30 -13 -56 -12 -58 6 -6 104 108 140 163
50 75 110 205 132 285 28 102 26 319 -5 434 -29 113 -78 228 -139 334 l-49 84
59 136 c33 75 113 245 178 377 l119 240 151 158 c105 108 150 162 146 173 -5
13 -12 11 -41 -12 -48 -36 -121 -44 -151 -16 -20 19 -25 19 -60 7 -22 -8 -52
-14 -67 -15 -32 0 -93 24 -118 46 -15 13 -21 12 -63 -10 -86 -45 -202 -44
-262 3 -25 19 -26 19 -67 1 -54 -25 -133 -26 -172 -2 -29 18 -31 18 -70 -2
-51 -26 -108 -25 -147 4 l-30 22 -22 -23 c-12 -13 -13 -17 -4 -10 15 11 19 11
24 -3 4 -10 12 -15 19 -12 6 2 18 0 26 -5 11 -7 11 -9 -2 -9 -9 0 -20 -7 -23
-16 -4 -11 -1 -14 13 -9 16 5 21 -2 31 -45 7 -27 16 -50 20 -50 5 0 8 -12 8
-28 -1 -33 28 -92 54 -110 10 -7 16 -17 13 -22 -3 -4 2 -13 10 -20 8 -7 15
-18 15 -26 0 -7 7 -19 15 -27 8 -9 16 -35 17 -60 2 -25 6 -43 9 -41 4 2 9 -5
12 -16 7 -28 -33 -27 -128 5 -309 104 -625 152 -1071 162 -380 8 -708 -18
-999 -79 -171 -37 -328 -27 -343 22 -4 13 -3 13 11 2 13 -11 15 -10 10 10 -4
18 -3 20 6 8 9 -12 11 -11 11 8 0 13 4 20 10 17 6 -3 10 -1 10 4 0 6 -4 11 -9
11 -5 0 -12 7 -15 17 -4 9 19 -9 50 -40 31 -31 61 -54 66 -51 4 3 6 9 3 14 -3
5 2 22 12 37 11 16 23 36 29 47 5 10 14 19 19 19 6 -1 23 10 38 23 16 13 34
24 40 24 8 0 8 3 -1 9 -10 6 -6 11 15 20 52 21 109 85 118 132 5 23 21 39 43
39 6 0 20 8 30 18 10 9 27 22 36 27 13 8 4 10 -38 10 -47 0 -60 4 -82 27 -26
25 -28 26 -51 11 -52 -34 -179 -11 -222 41 -18 21 -20 21 -65 -20z m2254 -76
c0 -6 -6 -5 -15 2 -8 7 -15 14 -15 16 0 2 7 1 15 -2 8 -4 15 -11 15 -16z
m-565 -402 c256 -43 340 -59 468 -93 75 -21 137 -40 137 -44 0 -20 -64 -18
-150 5 -103 27 -308 66 -349 66 -14 0 -39 7 -56 16 -18 10 -48 15 -75 13 -25
-2 -92 -3 -150 -2 l-105 1 60 -12 60 -12 -53 -12 c-30 -6 -102 -12 -162 -12
-96 0 -113 -3 -151 -24 -24 -14 -46 -23 -51 -20 -4 3 -8 1 -8 -4 0 -5 -32 -21
-71 -36 -39 -14 -91 -40 -115 -57 -24 -16 -69 -38 -99 -48 -48 -16 -62 -17
-122 -5 -37 7 -113 14 -168 17 -77 3 -111 9 -147 27 -27 12 -48 26 -48 31 0
12 30 25 73 32 22 3 55 19 75 34 32 24 45 28 96 26 36 -1 71 4 87 13 16 8 42
14 59 14 30 0 90 24 90 37 0 15 -410 -35 -502 -61 -46 -13 -47 -13 -74 15 -15
16 -25 29 -21 29 4 0 67 11 140 24 73 14 202 32 287 40 85 9 173 18 195 20 22
2 200 3 395 1 274 -2 378 -6 455 -19z m110 -202 c14 -11 10 -11 -14 3 -19 10
-36 24 -39 31 -3 10 1 9 14 -2 11 -9 28 -23 39 -32z m210 14 c6 0 21 2 34 6
18 6 22 5 16 -4 -5 -8 -4 -11 3 -7 5 4 20 3 33 -1 23 -9 23 -9 -5 -16 -16 -4
-33 -2 -41 4 -8 7 -15 7 -19 1 -3 -5 0 -12 6 -14 7 -3 0 -6 -17 -6 -16 -1 -41
-3 -55 -6 -24 -4 -24 -4 3 7 15 7 27 16 27 20 0 5 -9 4 -20 -2 -12 -6 -20 -7
-20 -1 0 5 6 12 13 14 6 3 0 6 -16 6 -16 1 -34 -7 -44 -19 -11 -13 -29 -20
-48 -19 -27 2 -27 2 -5 6 13 3 36 14 50 25 18 15 34 18 60 14 19 -3 40 -7 45
-8z"/>
<path d="M3900 2970 c-13 -8 -12 -10 3 -10 9 0 18 -4 18 -10 1 -5 2 -14 3 -19
0 -5 5 -13 10 -18 5 -5 6 -3 2 5 -4 7 -2 12 6 12 10 0 10 2 -1 9 -9 6 -10 11
-2 15 13 9 5 26 -12 26 -7 0 -19 -5 -27 -10z"/>
<path d="M3728 2963 c12 -2 32 -2 45 0 12 2 2 4 -23 4 -25 0 -35 -2 -22 -4z"/>
<path d="M4127 2959 c8 -8 19 -8 40 -1 28 10 28 10 -11 11 -29 1 -37 -2 -29
-10z"/>
<path d="M3838 2853 c7 -3 16 -2 19 1 4 3 -2 6 -13 5 -11 0 -14 -3 -6 -6z"/>
<path d="M3855 2142 c4 -6 0 -14 -7 -17 -11 -4 -214 -33 -433 -62 -22 -3 -46
-10 -53 -16 -10 -8 -16 -7 -23 4 -6 10 -9 11 -9 1 0 -7 -5 -10 -11 -6 -17 10
-1 -52 26 -106 13 -25 58 -84 102 -130 100 -109 134 -153 168 -218 30 -58 31
-96 2 -165 l-16 -37 -42 45 c-48 52 -134 103 -243 145 -252 97 -357 198 -344
327 5 45 5 46 -7 19 -8 -19 -14 -24 -17 -15 -4 11 -9 10 -27 -5 -11 -11 -31
-24 -43 -30 -12 -6 -25 -22 -28 -36 -4 -17 -8 -21 -14 -12 -4 7 -4 22 0 35 6
19 5 20 -10 8 -10 -8 -14 -22 -11 -35 3 -12 2 -15 -1 -8 -3 6 -10 12 -15 12
-6 0 -9 -6 -8 -12 1 -7 -1 -21 -6 -31 -15 -35 2 -125 35 -182 17 -30 78 -101
135 -158 114 -113 145 -166 145 -244 0 -59 -37 -123 -92 -163 -23 -17 -44 -30
-48 -30 -4 0 -2 17 6 38 56 158 -60 288 -330 366 -48 14 -93 26 -99 26 -7 0
13 -16 43 -36 104 -69 160 -135 160 -187 0 -23 -46 -146 -71 -191 -8 -14 -7
-17 2 -14 8 3 16 15 20 29 7 25 8 25 14 -4 2 -9 -1 -17 -6 -17 -5 0 -9 -4 -9
-10 0 -5 8 -10 18 -10 10 0 33 -11 52 -25 19 -14 38 -25 42 -25 5 0 18 -9 30
-20 20 -18 37 -27 156 -82 26 -12 50 -26 53 -31 4 -5 9 -4 13 2 10 16 26 14
26 -4 0 -21 6 -19 88 24 53 28 74 35 80 26 4 -6 23 -17 42 -24 38 -13 247 -59
320 -70 43 -6 45 -7 43 -38 l-3 -32 40 23 c39 22 45 23 278 18 183 -3 255 -1
317 10 110 21 138 21 129 -1 -4 -9 -8 -28 -8 -43 -1 -14 -4 -24 -8 -22 -4 2
-9 0 -13 -6 -8 -13 7 -13 42 1 15 6 37 12 47 15 25 5 177 74 196 90 8 6 30 19
49 29 19 9 46 28 60 41 17 16 29 20 37 13 13 -11 68 13 57 25 -4 4 0 4 9 1 10
-4 29 2 47 14 l29 21 6 -26 c4 -14 4 -41 0 -59 l-6 -34 57 20 c32 11 64 25 71
32 36 32 50 42 92 63 l47 24 -30 -29 c-18 -16 -37 -26 -47 -23 -10 2 -18 -1
-18 -7 0 -12 27 -10 50 4 30 19 90 102 122 171 129 273 -74 566 -558 809 -71
36 -132 65 -137 65 -4 0 23 -29 60 -64 212 -200 254 -429 120 -653 -34 -57
-58 -73 -31 -22 26 51 16 160 -20 232 -43 84 -150 181 -277 252 -291 160 -518
327 -593 435 -9 14 -14 19 -11 12z"/>
<path d="M5551 983 c-1 -6 -4 -20 -7 -30 -5 -17 -5 -17 6 0 6 10 9 23 6 30 -3
9 -5 9 -5 0z"/>
<path d="M5526 915 c-9 -26 -7 -32 5 -12 6 10 9 21 6 23 -2 3 -7 -2 -11 -11z"/>
<path d="M4925 392 c-210 -85 -599 -131 -950 -112 -344 19 -552 44 -715 85
-52 13 -96 23 -98 21 -1 -2 22 -40 53 -86 65 -97 70 -113 56 -180 -6 -28 -11
-67 -11 -85 l0 -35 684 0 c685 0 685 0 723 22 64 36 119 85 170 150 60 77 155
226 151 237 -2 4 -30 -3 -63 -17z"/>
</g>
</svg>
